# xmcd
#
# Track frame offsets:
#	150
#	13466
#	23473
#	38290
#	50628
#	61953
#	73532
#	88111
#	101116
#	114994
#	125495
#	139159
#
# Disc length: 2007 seconds
#
# Revision: 0
# Processed by: cddbd v1.5.2PL0 Copyright (c) Steve Scherf et al.
# Submitted via: audiograbber 1.83.01
#
DISCID=9f07d50c
DTITLE=javier solis - kareokanta 3
DYEAR=1900
DGENRE=
TTITLE0=sombras
TTITLE1=media vuelta
TTITLE2=carabela
TTITLE3=cuatro cirios
TTITLE4=cuando escuches este vals
TTITLE5=gracias
TTITLE6=mentira mentira
TTITLE7=adelante
TTITLE8=besame y olvidame
TTITLE9=el camino de la noche
TTITLE10=tu voz
TTITLE11=jamas , jamas
EXTD=
EXTT0=
EXTT1=
EXTT2=
EXTT3=
EXTT4=
EXTT5=
EXTT6=
EXTT7=
EXTT8=
EXTT9=
EXTT10=
EXTT11=
PLAYORDER=
